<svg width="27" height="28" viewBox="0 0 27 28" fill="none" xmlns="http://www.w3.org/2000/svg">
<path d="M0 9.33545V14.2599C1.70283 14.2588 3.38919 14.5894 4.96257 15.233C6.53596 15.8766 7.96549 16.8204 9.16937 18.0106C10.373 19.2002 11.3275 20.6127 11.9783 22.1672C12.6292 23.7217 12.9636 25.3877 12.9625 27.0699H17.9421C17.9376 22.3684 16.0459 17.8607 12.6822 14.5359C9.3185 11.2111 4.75748 9.34082 0 9.33545Z" fill="#6B67F5"/>
<path d="M24.9029 0.469971H17.0114C21.0035 2.97011 24.3862 6.31253 26.9167 10.2574V2.45867C26.9163 1.93111 26.704 1.42528 26.3264 1.05236C25.9487 0.679448 25.4367 0.469971 24.9029 0.469971Z" fill="#6B67F5"/>
<path d="M4.95833 0.469971H0V4.90377C5.94699 4.90988 11.6487 7.24719 15.8539 11.4028C20.0591 15.5584 22.4244 21.1929 22.4308 27.07H26.9167V22.17C25.9024 16.7845 23.2617 11.8289 19.3421 7.95542C15.4225 4.08196 10.4079 1.47228 4.95833 0.469971Z" fill="#6B67F5"/>
</svg>
